<?xml version="1.0" encoding="utf-8"?>
<!-- Generator: Adobe Illustrator 27.5.0, SVG Export Plug-In . SVG Version: 6.00 Build 0)  -->
<svg version="1.1" id="Layer_1" xmlns="http://www.w3.org/2000/svg" xmlns:xlink="http://www.w3.org/1999/xlink" x="0px" y="0px"
	 viewBox="0 0 512 512" style="enable-background:new 0 0 512 512;" xml:space="preserve">
<style type="text/css">
	.st0{fill:#EA675C;}
	.st1{fill:#58BBBA;}
	.st2{fill:#F3B555;}
</style>
<g>
	<path class="st0" d="M366.45,168.66H145.55c-22.3,0-40.55-18.25-40.55-40.55v0c0-22.3,18.25-40.55,40.55-40.55h220.91
		c22.3,0,40.55,18.25,40.55,40.55v0C407,150.41,388.75,168.66,366.45,168.66z"/>
	<path class="st1" d="M366.45,424.43H145.55c-22.3,0-40.55-18.25-40.55-40.55v0c0-22.3,18.25-40.55,40.55-40.55l220.91,0
		c22.3,0,40.55,18.25,40.55,40.55v0C407,406.19,388.75,424.43,366.45,424.43z"/>
	<path class="st2" d="M247.71,296.94H145.55c-22.3,0-40.55-18.25-40.55-40.55v0c0-22.3,18.25-40.55,40.55-40.55h102.16
		c22.3,0,40.55,18.25,40.55,40.55v0C288.25,278.7,270.01,296.94,247.71,296.94z"/>
	<circle class="st2" cx="366.45" cy="256.4" r="40.55"/>
</g>
</svg>
