<svg width="375" height="58" viewBox="0 0 375 58" fill="none" xmlns="http://www.w3.org/2000/svg">
<g clip-path="url(#clip0_122_3022)">
<path d="M101.009 41.0326C102.915 41.0326 104.64 40.5469 105.997 39.7714C107.393 38.9723 109.141 39.1133 110.537 39.9124C113.799 41.7846 113.807 46.5866 110.482 48.3413C107.746 49.7827 104.53 50.5191 100.868 50.5191C88.7528 50.5191 81.2483 42.3878 81.2483 31.8438C81.2483 21.2997 88.894 13.1685 100.084 13.1685C110.427 13.1685 118.073 21.1666 118.073 31.8438C118.073 33.3322 117.932 34.7422 117.65 36.0896H92.509C93.85 39.7635 97.1121 41.0404 101.009 41.0404V41.0326ZM107.526 28.1541C106.389 24.0493 103.205 22.5609 100.014 22.5609C95.9751 22.5609 93.2854 24.5428 92.2973 28.1541H107.526Z" fill="#E66558"/>
<path d="M176.494 14.1475L167.1 43.4608C165.939 47.0721 162.583 49.524 158.787 49.524H158.537C156.584 49.524 154.859 48.2471 154.302 46.3749L150.522 33.7785C150.24 32.8463 148.915 32.8463 148.64 33.7785L144.861 46.3749C144.296 48.2471 142.579 49.524 140.618 49.524H140.367C136.572 49.524 133.208 47.0721 132.055 43.4608L122.668 14.1475H129.757C132.259 14.1475 134.447 15.8239 135.098 18.2366L139.097 33.1048L143.716 17.2417C144.249 15.4087 145.935 14.1475 147.848 14.1475H151.306C153.22 14.1475 154.906 15.4087 155.439 17.2417L160.058 33.1048L164.057 18.2366C164.708 15.8239 166.896 14.1475 169.397 14.1475H176.494Z" fill="#F0B64F"/>
<path d="M219.177 22.9918V49.5242H208.551V46.2028C206.214 48.8897 202.74 50.5113 197.996 50.5113C188.719 50.5113 181.074 42.38 181.074 31.836C181.074 21.2919 188.719 13.1606 197.996 13.1606C202.74 13.1606 206.214 14.79 208.551 17.477V14.1555H210.323C215.209 14.1555 219.177 18.1115 219.177 22.9997V22.9918ZM208.551 31.836C208.551 26.5326 205.015 23.2033 200.121 23.2033C195.228 23.2033 191.691 26.5248 191.691 31.836C191.691 37.1471 195.236 40.4686 200.121 40.4686C205.007 40.4686 208.551 37.1471 208.551 31.836Z" fill="#4EB8B9"/>
<path d="M312.407 41.0326C314.313 41.0326 316.038 40.5469 317.395 39.7714C318.79 38.9723 320.539 39.1133 321.935 39.9124C325.197 41.7846 325.205 46.5866 321.88 48.3413C319.143 49.7827 315.928 50.5191 312.266 50.5191C300.151 50.5191 292.646 42.3878 292.646 31.8438C292.646 21.2997 300.292 13.1685 311.482 13.1685C321.825 13.1685 329.471 21.1666 329.471 31.8438C329.471 33.3322 329.33 34.7422 329.047 36.0896H303.907C305.248 39.7635 308.51 41.0404 312.407 41.0404V41.0326ZM318.924 28.1541C317.787 24.0493 314.603 22.5609 311.411 22.5609C307.373 22.5609 304.683 24.5428 303.695 28.1541H318.924Z" fill="#295576"/>
<path d="M375 0V49.524H364.374V46.2026C362.038 48.8895 358.564 50.5111 353.819 50.5111C344.543 50.5111 336.897 42.3798 336.897 31.8358C336.897 21.2917 344.543 13.1605 353.819 13.1605C358.564 13.1605 362.038 14.7898 364.374 17.4768V8.84414C364.374 3.9638 368.335 0 373.228 0L375 0ZM364.374 31.8358C364.374 26.5324 360.838 23.2031 355.945 23.2031C351.051 23.2031 347.515 26.5246 347.515 31.8358C347.515 37.1469 351.059 40.4684 355.945 40.4684C360.83 40.4684 364.374 37.1469 364.374 31.8358Z" fill="#295576"/>
<path d="M281.558 21.848C276.751 11.8132 264.282 10.3483 257.076 17.2497C249.807 10.2308 237.111 11.915 232.398 22.2006C231.253 24.6916 230.532 27.6214 230.532 31.1152V49.6808H241.157V29.7286C241.157 25.5533 243.141 23.0779 246.686 23.0779C249.799 23.0779 251.414 25.0363 251.681 28.0758V49.6808H262.408V29.7286C262.408 29.6816 262.424 34.0685 262.424 34.0215V28.8199C262.722 25.2478 264.58 23.0779 267.835 23.0779C271.089 23.0779 272.932 25.3418 272.932 28.8826V49.6808H283.55V34.1468C283.55 34.0998 283.565 34.0685 283.565 34.0215V31.1152C283.565 27.4491 282.781 24.4018 281.558 21.848Z" fill="#295576"/>
<path d="M44.0157 1.35498H6.82232C3.05446 1.35498 0 4.40627 0 8.17022V8.17805C0 11.942 3.05446 14.9933 6.82232 14.9933H44.0157C47.7836 14.9933 50.838 11.942 50.838 8.17805V8.17022C50.838 4.40627 47.7836 1.35498 44.0157 1.35498Z" fill="#E66558"/>
<path d="M44.0157 44.3613H6.82232C3.05446 44.3613 0 47.4126 0 51.1766V51.1844C0 54.9483 3.05446 57.9996 6.82232 57.9996H44.0157C47.7836 57.9996 50.838 54.9483 50.838 51.1844V51.1766C50.838 47.4126 47.7836 44.3613 44.0157 44.3613Z" fill="#4EB8B9"/>
<path d="M24.0271 22.9209H6.82232C3.05446 22.9209 0 25.9722 0 29.7361V29.744C0 33.5079 3.05446 36.5592 6.82232 36.5592H24.0271C27.795 36.5592 30.8494 33.5079 30.8494 29.744V29.7361C30.8494 25.9722 27.795 22.9209 24.0271 22.9209Z" fill="#F0B64F"/>
<path d="M44.0079 36.5592C47.7757 36.5592 50.8302 33.5079 50.8302 29.7439C50.8302 25.98 47.7757 22.9287 44.0079 22.9287C40.24 22.9287 37.1855 25.98 37.1855 29.7439C37.1855 33.5079 40.24 36.5592 44.0079 36.5592Z" fill="#F0B64F"/>
</g>
<defs>
<clipPath id="clip0_122_3022">
<rect width="375" height="58" fill="white"/>
</clipPath>
</defs>
</svg>
