<svg width="370" height="85" viewBox="0 0 370 85" fill="none" xmlns="http://www.w3.org/2000/svg">
<g clip-path="url(#clip0_612_342)">
<path d="M125.595 63.9685C127.965 63.9685 130.11 63.3665 131.797 62.4052C133.532 61.4148 135.707 61.5896 137.442 62.58C141.498 64.9006 141.508 70.8528 137.374 73.0278C133.971 74.8144 129.973 75.7271 125.42 75.7271C110.355 75.7271 101.024 65.6483 101.024 52.5788C101.024 39.5094 110.531 29.4305 124.445 29.4305C137.306 29.4305 146.812 39.3443 146.812 52.5788C146.812 54.4237 146.637 56.1715 146.286 57.8416H115.026C116.693 62.3955 120.749 63.9782 125.595 63.9782V63.9685ZM133.698 48.0055C132.284 42.9175 128.326 41.0726 124.357 41.0726C119.336 41.0726 115.991 43.5292 114.763 48.0055H133.698Z" fill="#E66558"/>
<path d="M219.453 30.6443L207.772 66.9785C206.329 71.4548 202.156 74.494 197.437 74.494H197.125C194.697 74.494 192.552 72.9112 191.859 70.5906L187.16 54.9772C186.809 53.8217 185.161 53.8217 184.82 54.9772L180.12 70.5906C179.418 72.9112 177.283 74.494 174.845 74.494H174.533C169.814 74.494 165.631 71.4548 164.197 66.9785L152.526 30.6443H161.341C164.451 30.6443 167.171 32.7222 167.981 35.7128L172.953 54.1421L178.696 34.4797C179.359 32.2076 181.456 30.6443 183.835 30.6443H188.135C190.514 30.6443 192.61 32.2076 193.273 34.4797L199.016 54.1421L203.989 35.7128C204.798 32.7222 207.519 30.6443 210.629 30.6443H219.453Z" fill="#F0B64F"/>
<path d="M272.525 41.6067V74.4939H259.313V70.377C256.407 73.7075 252.088 75.7174 246.189 75.7174C234.654 75.7174 225.147 65.6386 225.147 52.5691C225.147 39.4997 234.654 29.4208 246.189 29.4208C252.088 29.4208 256.407 31.4405 259.313 34.771V30.654H261.517C267.591 30.654 272.525 35.5575 272.525 41.6164V41.6067ZM259.313 52.5691C259.313 45.9955 254.915 41.8689 248.831 41.8689C242.747 41.8689 238.349 45.9858 238.349 52.5691C238.349 59.1524 242.757 63.2694 248.831 63.2694C254.906 63.2694 259.313 59.1524 259.313 52.5691Z" fill="#4EB8B9"/>
<path d="M54.7292 14.7881H8.48288C3.79792 14.7881 0 18.5702 0 23.2357V23.2454C0 27.9108 3.79792 31.6929 8.48288 31.6929H54.7292C59.4142 31.6929 63.2121 27.9108 63.2121 23.2454V23.2357C63.2121 18.5702 59.4142 14.7881 54.7292 14.7881Z" fill="#E66558"/>
<path d="M54.7292 68.0952H8.48288C3.79792 68.0952 0 71.8773 0 76.5427V76.5524C0 81.2179 3.79792 85 8.48288 85H54.7292C59.4142 85 63.2121 81.2179 63.2121 76.5524V76.5427C63.2121 71.8773 59.4142 68.0952 54.7292 68.0952Z" fill="#4EB8B9"/>
<path d="M29.8754 41.5193H8.48288C3.79792 41.5193 0 45.3014 0 49.9669V49.9766C0 54.642 3.79792 58.4241 8.48288 58.4241H29.8754C34.5603 58.4241 38.3582 54.642 38.3582 49.9766V49.9669C38.3582 45.3014 34.5603 41.5193 29.8754 41.5193Z" fill="#F0B64F"/>
<path d="M54.7195 58.4241C59.4044 58.4241 63.2023 54.642 63.2023 49.9766C63.2023 45.3111 59.4044 41.529 54.7195 41.529C50.0345 41.529 46.2366 45.3111 46.2366 49.9766C46.2366 54.642 50.0345 58.4241 54.7195 58.4241Z" fill="#F0B64F"/>
<path d="M320.975 32.7319C320.214 32.3823 319.317 32.2075 318.293 32.2075C317.406 32.2075 316.568 32.3435 316.002 32.4406C313.438 32.9358 312.034 33.4407 309.918 34.2078L308.933 34.567C306.466 35.5283 302.371 37.849 300.206 39.7715C298.451 41.3542 296.53 43.1797 294.844 45.277C294.98 41.9854 295.526 39.3152 296.491 37.179C296.55 37.0528 296.579 36.9168 296.579 36.7809C296.579 36.7323 296.579 36.7129 296.716 36.4896C296.784 36.3828 296.842 36.2663 296.881 36.1886C297.047 35.9167 297.242 35.6642 297.437 35.4021C298.032 34.6156 298.773 33.6252 298.773 32.1978C298.773 31.9842 298.705 31.7803 298.578 31.6152C297.544 30.2462 296.062 30.2462 295.497 30.2462C295.38 30.2462 295.263 30.2656 295.146 30.3141C293.654 30.887 292.62 31.8289 291.909 33.2562C291.616 33.7805 291.353 34.3534 291.109 34.9069C290.865 35.4506 290.631 35.9555 290.378 36.4119C290.339 36.4799 290.31 36.5478 290.29 36.6255C288.974 41.3348 288.594 46.1606 289.159 50.9475C289.9 58.094 292.357 64.9783 294.727 71.6489L295.126 72.7656C295.165 72.8918 295.243 73.0083 295.331 73.0957L296.677 74.5425C297.086 74.9503 297.613 75.1639 298.178 75.1639C299.163 75.1639 300.041 74.4939 300.372 73.5035C300.431 73.319 300.44 73.1248 300.392 72.9404C299.924 71.2314 299.378 69.5807 298.861 67.9786C298.412 66.5998 297.944 65.1822 297.544 63.7548C296.842 61.3856 295.994 58.2591 295.633 54.8897C296.901 51.5204 299.114 48.3065 302.215 45.3255C304.818 42.8301 307.626 40.2764 310.795 38.9753C314.062 37.5674 316.47 36.9362 319.502 36.3245C320.156 36.2857 320.799 35.9458 321.199 35.4021C321.638 34.8195 321.755 34.0815 321.521 33.3339C321.443 33.0717 321.248 32.8484 320.994 32.7319H320.975Z" fill="#295576"/>
<path d="M369.824 62.3275C369.59 61.7255 369.132 61.2788 368.537 61.0555C368.43 61.0167 368.313 60.9972 368.196 60.9972C368.089 60.9972 367.982 61.0167 367.884 61.0458C364.013 62.3663 361.498 62.9586 356.808 62.9586C352.118 62.9586 348.754 61.9488 344.629 60.1039C342.279 58.9873 340.641 57.9483 339.813 56.2783C339.764 53.2973 340.992 50.7825 342.192 48.7337C343.703 46.2868 345.682 43.8788 348.412 41.16C352.283 37.179 355.599 35.1496 359.089 34.6253C359.352 34.8098 359.528 35.004 359.704 35.237C360.045 35.8779 360.181 36.6255 360.328 37.412C360.367 37.6256 360.406 37.849 360.445 38.0626C360.474 38.2082 360.532 38.3345 360.62 38.451C360.952 38.8879 361.546 39.1501 362.2 39.1501C363.019 39.1501 363.691 38.752 363.964 38.0432C364.559 36.14 364.169 34.0913 363.643 32.159C363.623 32.0813 363.594 32.0134 363.555 31.9454C362.833 30.6346 361.429 29.6927 359.694 29.382C359.635 29.3723 359.577 29.3626 359.518 29.3626C359.489 29.3626 359.46 29.3626 359.43 29.3626C354.672 29.7704 349.739 32.1978 345.166 36.3731C342.104 39.1792 339.413 42.5874 337.346 46.2091C337.424 40.7911 337.97 35.2176 339.013 29.2849C340.242 22.2064 342.25 14.623 345.331 5.4375C345.361 5.3404 345.38 5.23359 345.38 5.12678V2.50513C345.38 2.34006 345.341 2.1847 345.263 2.04876C344.61 0.844742 343.206 -0.0291443 341.919 -0.0291443C340.846 -0.0291443 339.978 0.563156 339.549 1.60211C339.306 2.20412 339.335 2.81584 339.354 3.35959C339.354 3.50524 339.364 3.6606 339.364 3.81596C339.364 4.30145 339.364 4.71897 339.198 5.13649C336.458 13.2248 334.411 21.6821 333.134 30.2753C331.71 39.4996 331.3 48.3065 331.915 56.4336C332.227 61.3953 333.026 66.5513 334.352 72.183C334.391 72.3578 334.479 72.5228 334.616 72.6491C334.713 72.7559 334.772 72.853 334.869 73.0472C334.996 73.2899 335.162 73.62 335.493 73.9502C335.903 74.358 336.566 74.892 337.716 74.892C337.872 74.892 338.019 74.8532 338.155 74.7852C339.374 74.1832 340.105 73.4258 340.671 72.183C341.451 70.8624 341.655 69.2118 341.763 67.7747C341.782 67.5028 341.685 67.2407 341.499 67.0465C341.314 66.8523 341.061 66.7358 340.788 66.7358C339.969 66.7358 339.442 67.0174 339.062 67.2892C338.857 66.4445 338.721 65.5415 338.584 64.6773C338.535 64.1238 338.496 63.5704 338.438 63.0072C341.148 64.7938 343.859 66.1337 346.521 66.9882C349.407 67.8815 352.342 68.299 355.764 68.299C357.383 68.299 359.099 68.2117 361.371 68.0078C363.545 67.765 367.913 66.26 369.512 64.6773C369.59 64.5996 369.649 64.5219 369.698 64.4248C370.019 63.7743 370.058 62.9586 369.795 62.2789L369.824 62.3275Z" fill="#295576"/>
</g>
<defs>
<clipPath id="clip0_612_342">
<rect width="370" height="85" fill="white"/>
</clipPath>
</defs>
</svg>
